<svg xmlns="http://www.w3.org/2000/svg" xmlns:xlink="http://www.w3.org/1999/xlink" version="1.1" style="enable-background:new 0 0 512 512;" xml:space="preserve" width="512" height="512">
    <rect id="backgroundrect" width="100%" height="100%" x="0" y="0" fill="none" stroke="none" />
    <g class="currentLayer" style="">
        <title>Penyadap.wb.id</title>
        <path style="fill:transparent;" d="M256,130.246c109.138,0,199.851,67.317,242.28,110.438c8.373,8.509,8.373,22.121,0,30.63  C455.851,314.435,365.138,381.753,256,381.753S56.15,314.435,13.721,271.314c-8.373-8.509-8.373-22.121,0-30.63  C56.15,197.563,146.862,130.246,256,130.246z" id="svg_1" class="" />
        <circle style="" cx="256.0010070800781" cy="256" r="125.75" id="svg_2" class="" fill="#6d6d6d" fill-opacity="1" />
        <path style="opacity:0.1;enable-background:new    ;" d="M190.937,148.366c-36.378,22.037-60.69,61.995-60.69,107.633  c0,69.452,56.301,125.753,125.753,125.753c29.998,0,57.537-10.509,79.151-28.04C144.002,400.117,130.248,216.711,190.937,148.366z" id="svg_3" />
        <circle style="fill:#38648C;" cx="256.0010070800781" cy="256" r="61.60499954223633" id="svg_4" />
        <circle style="fill:#FFFFFF;" cx="316.39599609375" cy="222.25460815429688" r="29.097000122070312" id="svg_5" class="" />
        <path style="opacity:0.15;enable-background:new;" d="M18.148,236.272C60.356,210.211,154.601,155.981,256,155.981  s195.644,54.23,237.852,80.291C449.751,193.129,361.484,130.246,256,130.246S62.249,193.129,18.148,236.272z" id="svg_6" />
        <g style="opacity:0.1;" id="svg_7">
            <path style="fill:#38648C;" d="M333.405,326.463c-1.663,0-3.338-0.55-4.729-1.682l-8.888-7.23c-3.215-2.615-3.7-7.339-1.086-10.554   s7.339-3.701,10.553-1.086l8.888,7.23c3.215,2.615,3.7,7.339,1.086,10.554C337.747,325.517,335.584,326.463,333.405,326.463z" id="svg_8" />
            <path d="M351.447,292.605c-0.725,0-1.461-0.106-2.191-0.328l-10.958-3.341c-3.963-1.208-6.195-5.4-4.987-9.363   c1.207-3.963,5.399-6.196,9.363-4.987l10.958,3.341c3.963,1.208,6.195,5.4,4.987,9.363   C357.634,290.522,354.661,292.605,351.447,292.605z" id="svg_9" />
            <path d="M246.824,362.859c-0.232,0-0.464-0.011-0.699-0.032c-4.125-0.381-7.161-4.035-6.779-8.16l1.054-11.408   c0.381-4.126,4.035-7.153,8.16-6.78c4.125,0.381,7.161,4.035,6.779,8.16l-1.054,11.408   C253.926,359.939,250.656,362.859,246.824,362.859z" id="svg_10" />
            <path d="M159.339,288.284c-3.345,0-6.394-2.252-7.262-5.64c-1.029-4.013,1.39-8.101,5.403-9.13l11.098-2.846   c4.014-1.027,8.102,1.391,9.129,5.403c1.029,4.013-1.39,8.101-5.403,9.13l-11.098,2.846   C160.583,288.208,159.956,288.284,159.339,288.284z" id="svg_11" />
            <path d="M208.969,188.743c-2.493,0-4.931-1.241-6.357-3.508l-6.101-9.696c-2.207-3.507-1.152-8.138,2.355-10.344   c3.505-2.205,8.139-1.153,10.344,2.355l6.101,9.696c2.207,3.507,1.152,8.138-2.355,10.344   C211.717,188.371,210.336,188.743,208.969,188.743z" id="svg_12" />
            <path d="M296.889,185.214c-1.171,0-2.358-0.274-3.468-0.854c-3.672-1.918-5.094-6.451-3.176-10.122l5.304-10.154   c1.918-3.673,6.453-5.091,10.122-3.177c3.672,1.918,5.094,6.451,3.176,10.122l-5.304,10.154   C302.205,183.747,299.593,185.214,296.889,185.214z" id="svg_13" />
        </g>
        <path d="M502.05219688606263,234.6345984430313 c-2.496,-2.537 -5.113,-5.111 -7.779,-7.654 c-2.998,-2.859 -7.747,-2.748 -10.607,0.252 c-2.859,2.999 -2.747,7.747 0.252,10.607 c2.552,2.433 5.054,4.8950000000000005 7.438,7.319 c5.455,5.543 5.455,14.563 0,20.108 c-15.241,15.489 -47.758,45.183 -94.309,70.033 c-20.571,10.981 -41.244,19.611 -61.911,25.868 c31.913,-24.368 52.544,-62.794 52.544,-105.954 c0,-43.075 -20.551,-81.435 -52.356,-105.81 c54.173,16.484 97.442,45.811 122.612,65.842 c3.24,2.579 7.96,2.042 10.541,-1.198 c2.581,-3.242 2.043,-7.962 -1.198,-10.542 c-38.269,-30.455 -116.809,-81.546 -212.854,-81.546 c-49.688,0 -100.05,13.435 -149.688,39.933 c-48.311,25.788 -82.098,56.646 -97.938,72.745 c-11.165,11.346 -11.165,29.807 0,41.154 c9.64,9.797 25.728,24.859 47.624,40.967 c1.339,0.984 2.8970000000000002,1.459 4.439,1.459 c2.305,0 4.578,-1.058 6.048,-3.057 c2.456,-3.338 1.739,-8.033 -1.597,-10.488 c-21.101,-15.522 -36.565,-29.995 -45.822,-39.403 c-5.455,-5.543 -5.455,-14.563 0,-20.108 c15.241,-15.489 47.758,-45.183 94.309,-70.033 c20.571,-10.981 41.244,-19.611 61.911,-25.868 C141.79919688606262,173.62559844303132 121.16819688606262,212.05259844303131 121.16819688606262,255.2125984430313 c0,43.05 20.527,81.391 52.3,105.768 c-27.488,-8.336 -54.925,-20.766000000000002 -81.538,-37.063 c-3.533,-2.162 -8.151,-1.054 -10.316,2.48 c-2.164,3.533 -1.053,8.152 2.48,10.315 c55.292,33.858 114.191,51.754 170.329,51.754 c49.688,0 100.05,-13.435 149.688,-39.932 c48.311,-25.789 82.098,-56.647 97.938,-72.746 C513.2161968860627,264.44259844303133 513.2161968860627,245.98159844303132 502.05219688606263,234.6345984430313 zM136.1731968860626,255.2115984430313 c0,-65.204 53.048,-118.251 118.252,-118.251 s118.252,53.048 118.252,118.251 S319.6301968860626,373.4625984430313 254.42519688606262,373.4625984430313 S136.1731968860626,320.4155984430313 136.1731968860626,255.2115984430313 zM351.4161968860626,222.25559844303132 c0,-20.178 -16.416,-36.594 -36.594,-36.594 c-9.754,0 -18.622,3.8440000000000003 -25.19,10.087 c-10.631,-6.324 -22.668,-9.648 -35.206,-9.648 c-38.108,0 -69.11,31.002 -69.11,69.109 s31.002,69.109 69.11,69.109 c37.237,0 67.672,-29.606 69.044,-66.513 C339.4861968860626,253.91059844303132 351.4161968860626,239.4545984430313 351.4161968860626,222.25559844303132 zM254.42519688606262,309.31759844303133 c-29.834,0 -54.107,-24.272 -54.107,-54.106 s24.273,-54.106 54.107,-54.106 c9.458,0 18.555,2.407 26.648,7.009 c-1.831,4.353 -2.846,9.131 -2.846,14.142 c0,18 13.067,32.996 30.211,36.026 C306.8421968860626,286.6915984430313 283.2291968860626,309.31759844303133 254.42519688606262,309.31759844303133 zM314.8221968860626,243.8465984430313 c-11.905,0 -21.59,-9.685 -21.59,-21.59 c0,-11.905 9.685,-21.59 21.59,-21.59 c11.905,0 21.59,9.685 21.59,21.59 C336.41219688606265,234.16159844303132 326.72719688606264,243.8465984430313 314.8221968860626,243.8465984430313 z" id="svg_14" class="selected" fill="#5de7ae" fill-opacity="1" />
        <g id="svg_15">
        </g>
        <g id="svg_16">
        </g>
        <g id="svg_17">
        </g>
        <g id="svg_18">
        </g>
        <g id="svg_19">
        </g>
        <g id="svg_20">
        </g>
        <g id="svg_21">
        </g>
        <g id="svg_22">
        </g>
        <g id="svg_23">
        </g>
        <g id="svg_24">
        </g>
        <g id="svg_25">
        </g>
        <g id="svg_26">
        </g>
        <g id="svg_27">
        </g>
        <g id="svg_28">
        </g>
        <g id="svg_29">
        </g>
    </g>
</svg>