<?xml version="1.0" standalone="no"?>
<!DOCTYPE svg PUBLIC "-//W3C//DTD SVG 20010904//EN"
 "http://www.w3.org/TR/2001/REC-SVG-20010904/DTD/svg10.dtd">
<svg version="1.0" xmlns="http://www.w3.org/2000/svg"
 width="128.000000pt" height="128.000000pt" viewBox="0 0 128.000000 128.000000"
 preserveAspectRatio="xMidYMid meet">
<metadata>
Created by potrace 1.11, written by Peter Selinger 2001-2013
</metadata>
<g transform="translate(0.000000,128.000000) scale(0.100000,-0.100000)"
fill="#000000" stroke="none">
<path d="M485 1259 c-235 -62 -421 -253 -470 -485 -14 -67 -14 -197 0 -273 12
-64 64 -179 109 -240 46 -63 155 -153 230 -190 105 -53 184 -69 311 -66 259 8
477 165 575 415 28 70 35 122 34 240 -1 166 -64 312 -189 435 -76 76 -190 140
-290 165 -83 21 -230 20 -310 -1z"/>
</g>
</svg>
